<svg width="120" height="206" viewBox="0 0 120 206" fill="none" xmlns="http://www.w3.org/2000/svg">
<path fill-rule="evenodd" clip-rule="evenodd" d="M5.26066 206H114.899C121.755 205.847 121.698 196.182 114.738 196.182V192.651H5.26246V196.182C-1.75415 196.182 -1.75596 206 5.26066 206ZM5.26066 187.79V187.758C0.671485 187.758 0.373139 179.197 4.34928 178.06H115.52C118.932 179.197 118.665 187.758 114.738 187.758V187.79H5.26066ZM24.0121 161.107H100.744C107.64 161.269 113.326 166.299 114.511 172.885L114.568 173.199H5.62269C7.147 166.274 13.3169 161.099 20.7046 161.099H24.0114L24.0121 161.107ZM23.4959 156.174C24.4154 155.037 25.238 153.941 25.7946 152.958C27.3673 150.193 28.8108 147.396 30.1337 144.55H89.8567C91.1794 147.388 92.623 150.193 94.1958 152.958C94.6878 153.812 95.3814 154.763 96.1557 155.747L96.4944 156.174H23.4893L23.4959 156.174ZM32.2628 139.633C39.6102 121.721 42.2717 112.121 41.4812 91.7752C41.4812 91.7752 32.6336 91.7591 26.5444 91.743C23.4394 91.7349 20.9229 89.2198 20.9229 86.1082V85.3908C20.9229 79.3852 25.7943 74.5245 31.7947 74.5245H88.1936C94.2022 74.5245 99.0654 79.3935 99.0654 85.3908V86.1082C99.0654 89.2117 96.549 91.7349 93.4439 91.743C87.3547 91.7591 78.5071 91.7752 78.5071 91.7752C77.7329 111.807 80.2976 121.423 87.3869 138.803L87.7257 139.634H32.2538L32.2628 139.633ZM86.7353 69.5829V59.958H33.2704V69.5829H86.7353ZM43.0301 54.8715L43.014 54.8635L42.6752 54.6216L42.5139 54.5007L42.3204 54.3637L42.272 54.3314L42.1349 54.2347L41.9655 54.1057L41.901 54.0573L41.7639 53.9526L41.6106 53.8397L41.5784 53.8155L41.5381 53.7833L41.2638 53.5737L41.2235 53.5414L41.1751 53.5011L41.038 53.3883L40.9251 53.2916L40.8848 53.2593L40.8283 53.2109L40.6912 53.0981L40.5944 53.0175C36.6344 49.6721 33.5535 45.3191 31.7469 40.3616L31.7388 40.3455C31.6743 40.1601 31.6017 39.9667 31.5372 39.7812L31.521 39.7409L31.271 38.9913L31.2388 38.8704L31.2226 38.822C31.1662 38.6285 31.1097 38.4431 31.0533 38.2497L30.9726 37.9433L30.9565 37.895C30.9323 37.7982 30.9081 37.7015 30.8839 37.6048L30.8355 37.4113L30.8113 37.3226L30.8032 37.2823L30.779 37.1856L30.7226 36.9679C30.6984 36.8712 30.6823 36.7745 30.6581 36.6778L30.65 36.6455L30.6419 36.5972L30.6177 36.4924L30.5935 36.3714L30.5855 36.3231L30.5774 36.2989C30.5613 36.2022 30.5371 36.1054 30.521 36.0168L30.4806 35.7991L30.4645 35.7265L30.4484 35.6459L30.4322 35.5734L30.4 35.4122L30.3919 35.3638C30.3758 35.2671 30.3597 35.1703 30.3435 35.0736L30.3355 35.0494L30.3274 35.0011L30.3032 34.8801L30.2871 34.7754L30.279 34.727L30.2709 34.6947C30.2548 34.598 30.2387 34.5013 30.2306 34.4046L30.1984 34.1708L30.1903 34.1144L30.1822 34.0741L30.1742 34.0257L30.158 33.937L30.1419 33.8L30.1338 33.7274C30.1258 33.6307 30.1096 33.534 30.1016 33.4372L30.0774 33.2196L30.0693 33.1309L30.0612 33.0826V33.0422L30.0532 32.9778L30.029 32.752V32.744C30.0209 32.6472 30.0129 32.5505 30.0048 32.4457V32.4135L29.9967 32.3651L29.9887 32.2523L29.9806 32.1313V32.0588C29.9725 31.9621 29.9645 31.8573 29.9645 31.7605L29.9483 31.5348V31.293L29.9403 31.1318V31.0753C29.9403 30.9786 29.9322 30.8738 29.9322 30.7771V30.3901V30.0838V29.7775L29.9403 29.4712V29.3261L29.9483 29.1648V29.1165L29.9564 29.0036L29.9645 28.8585V28.794L29.9725 28.6892L29.9806 28.5522V28.4797L29.9887 28.3749L29.9967 28.254V28.1653L30.0048 28.0685L30.0129 27.9557L30.0209 27.8993V27.8509L30.029 27.7622L30.037 27.6574L30.0451 27.5929L30.0532 27.5365L30.0612 27.4559L30.0693 27.3592L30.0774 27.2866L30.0854 27.2221L30.0935 27.1415L30.1016 27.0529L30.1096 26.9722L30.1258 26.8271L30.1338 26.7465L30.1419 26.6579L30.15 26.5773L30.158 26.5128L30.1661 26.4402L30.1742 26.3435L30.1822 26.2629L30.1903 26.2064L30.1984 26.142L30.2145 26.0372L30.2306 25.9485L30.2387 25.9001L30.2629 25.7308L30.279 25.6341L30.2871 25.5938L30.2951 25.5454L30.3113 25.4245L30.3274 25.3197L30.3355 25.2472L30.3597 25.1182L30.3758 25.0134L30.3839 24.957L30.408 24.8199L30.4242 24.7071L30.4322 24.6668L30.4645 24.5136L30.4887 24.4088L30.4968 24.3766L30.529 24.1992L30.5532 24.0864L30.6097 23.7962L30.7387 23.2158L30.7468 23.1836L30.771 23.0707L30.8032 22.9256L30.8113 22.8853L30.8355 22.7724L30.8678 22.6435L30.8839 22.587L30.9081 22.4822L30.9403 22.3613L30.9565 22.2888L30.9807 22.184L31.0129 22.0711L31.0291 21.9905L31.0533 21.8938L31.0855 21.789L31.1178 21.6923L31.142 21.6036L31.1662 21.5069L31.1984 21.394L31.2468 21.2328L31.2791 21.1038L31.4727 20.5234L31.521 20.3944L31.5452 20.3138L31.5775 20.2332L31.6098 20.1204L31.6743 19.943L31.7711 19.6528L31.8033 19.5722L31.8436 19.4755L31.884 19.3707L31.9082 19.3062L31.9485 19.2014L31.9888 19.0886L32.013 19.0321L32.0533 18.9193L32.1179 18.758L32.1663 18.6452L32.2146 18.5162L32.2227 18.492L32.2711 18.3792L32.3276 18.2421L32.5695 17.694L32.634 17.5489L32.6905 17.4199L32.755 17.2829L32.8034 17.1781L32.8195 17.1378L32.8841 17.0169L33.0131 16.7589L33.0534 16.6702L33.2228 16.3317L33.2793 16.2269L33.3196 16.1463L33.3357 16.106L33.4083 15.9609L33.4486 15.8883L33.4728 15.848L33.5051 15.7916L33.5535 15.7029L33.6422 15.5256L33.6906 15.445L33.7228 15.3885L33.7551 15.3402L33.8357 15.1951L33.868 15.1467L33.9003 15.0903L33.9487 15.0097L33.989 14.9452L34.0132 14.8968L34.0454 14.8404L34.0938 14.7517L34.1261 14.6872L34.1503 14.6469L34.1906 14.5824L34.2471 14.4857L34.2793 14.4293L34.2955 14.397L34.3358 14.3325L34.4003 14.2277L34.4487 14.1552L34.489 14.0907L34.5616 13.9779L34.7229 13.7199L34.7552 13.6715L34.7955 13.607L34.8842 13.462L35.0536 13.2121L35.0778 13.1718C35.3359 12.7929 35.602 12.4221 35.8762 12.0593L35.9246 11.9949L36.0375 11.8417L36.1021 11.753L36.2069 11.616L36.2876 11.5112L36.3843 11.3903L36.4166 11.3419L36.4731 11.2774L36.5618 11.1646L36.594 11.1243L36.6102 11.1001L36.6586 11.0436L36.7392 10.9389L36.7715 10.8985L36.7957 10.8744L36.8441 10.8099L36.9247 10.7131L36.957 10.6728L36.9812 10.6487L37.0376 10.5761L37.1102 10.4874L37.1425 10.4552L37.1667 10.4229L37.2957 10.2617L37.3441 10.1972L37.4167 10.1086L37.4812 10.036L37.5377 9.97959L37.6183 9.88286L37.6748 9.81837L37.6909 9.79419L37.7232 9.76194L37.8199 9.65715L37.8845 9.5846L37.9167 9.55236L38.0216 9.4395L38.078 9.37501L38.2313 9.22185L38.441 9.0042L38.4893 8.94777C39.0781 8.34319 39.6991 7.77086 40.3363 7.21465L40.4008 7.15823L40.5621 7.02119L40.7557 6.85191L40.8524 6.7713L40.9734 6.67456L41.1992 6.49722L41.3202 6.40049L41.4251 6.31988L41.5541 6.21508L41.6509 6.14253L41.7961 6.02968L41.9009 5.94907L41.9251 5.93295L42.038 5.84427L42.1268 5.77979L42.1509 5.76366L42.28 5.66693L42.5219 5.48959L42.7639 5.32031L42.8284 5.28C43.6108 4.73991 44.4173 4.23207 45.248 3.76451L45.3125 3.72421L45.5787 3.57911L45.7319 3.4985L45.8449 3.44207L45.982 3.36952L46.4981 3.11157L46.6514 3.03096L46.7562 2.98259L46.9256 2.90198L47.2805 2.72464L47.474 2.63597L47.5708 2.59566L47.6111 2.57954L47.7563 2.51505L47.8773 2.46668L48.0386 2.39413L48.3209 2.27322L48.6032 2.16036L48.6596 2.13618C49.6758 1.72506 50.7162 1.36232 51.7808 1.06406L51.7889 1.08019C54.3617 0.370814 57.0716 0 59.8622 0C62.7011 0 65.4593 0.386931 68.0646 1.12049C73.9925 2.79719 79.2752 6.19083 83.1062 10.8018L83.2755 11.0033L83.3239 11.0598L83.3643 11.1081L83.4691 11.2371L83.5094 11.2855L83.5336 11.3096L83.574 11.3661L83.6627 11.4709L83.7111 11.5273L83.7353 11.5595L83.7756 11.6079L83.8482 11.6966L83.9046 11.7691L83.9369 11.8094L83.9691 11.8578L84.0821 12.019L84.1224 12.0674L84.1546 12.1077L84.203 12.1722L84.2676 12.2609L84.3079 12.3173L84.3321 12.3576L84.3724 12.414L84.445 12.5188L84.5176 12.6155L84.5498 12.6558L84.6386 12.7768L84.6869 12.8493L84.7273 12.9057L84.8724 13.1234L84.8966 13.1556L85.0176 13.333L85.0579 13.3894C85.1709 13.5667 85.2838 13.736 85.3967 13.9134L85.5499 14.1552L85.6225 14.2761L85.7435 14.4696L85.7919 14.5502L85.8564 14.6631L85.9532 14.8243L86.0096 14.921L86.0419 14.9774L86.0661 15.0258L86.1064 15.0984L86.1548 15.187L86.1871 15.2515L86.2193 15.3079L86.2516 15.3724L86.2919 15.445L86.3322 15.5256L86.3726 15.5901L86.4048 15.6465L86.4371 15.711L86.4855 15.7997L86.5258 15.8722L86.55 15.9206L86.5742 15.977L86.6306 16.0818L86.671 16.1624L86.7194 16.243L86.7758 16.3559L86.8242 16.4446L86.8565 16.509L86.921 16.6461L86.9694 16.7428L86.9855 16.7831L87.0662 16.9443L87.1065 17.033L87.1146 17.0491L87.3726 17.5973L87.3807 17.6215L87.421 17.7182L87.4936 17.8794L87.5097 17.9197L87.5501 18.0165L87.6065 18.1535L87.6307 18.218L87.6711 18.3147L87.7195 18.4356L87.7356 18.484L87.7517 18.5243L87.784 18.613L87.8243 18.7178L87.8727 18.8306L87.9049 18.9112L87.9372 18.9999L87.9614 19.0725L87.9856 19.1369L88.0098 19.2095L88.0743 19.3707L88.0985 19.4433L88.1469 19.5722L88.1792 19.669L88.2114 19.7496L88.2276 19.806L88.2518 19.8624L88.2921 19.9672L88.3243 20.0559L88.3405 20.0962L88.4292 20.3622L88.4534 20.4267L88.5018 20.5718L88.534 20.6766L88.5502 20.7169L88.6469 21.0071L88.8244 21.5875L88.8324 21.6117L88.8566 21.7084L88.905 21.8777L88.9212 21.9261L88.9454 22.0309L88.9857 22.176L89.0018 22.2485L89.026 22.3533L89.0583 22.4823L89.0744 22.5306L89.0825 22.579L89.1067 22.6757L89.1389 22.7886L89.155 22.8531L89.1712 22.9095L89.1873 22.9982L89.2115 23.0949L89.2276 23.1675L89.2438 23.232L89.2599 23.3045L89.2922 23.4818L89.3083 23.5544L89.3244 23.6189L89.3405 23.6914L89.3647 23.7962L89.3809 23.8849L89.3889 23.9413L89.4051 24.0058L89.4293 24.1187L89.4454 24.2154L89.4535 24.2557L89.4615 24.3041L89.4857 24.4411L89.5018 24.5459L89.518 24.6185L89.5422 24.7716L89.5583 24.8764L89.5664 24.9248L89.5986 25.1102L89.6148 25.2069V25.215C89.6309 25.3198 89.647 25.4326 89.6631 25.5374L89.7035 25.8437V25.8679L89.7196 25.9647L89.7438 26.1581L89.7519 26.2065L89.768 26.3113L89.7841 26.4725L89.7922 26.545L89.8003 26.6498L89.8164 26.7869L89.8325 26.8836L89.8406 26.9803L89.8567 27.1013L89.8648 27.1657L89.8728 27.2222L89.8809 27.3108L89.889 27.4156L89.897 27.4963L89.9051 27.5607L89.9132 27.6414L89.9293 27.8187L89.9374 27.8993L89.9454 27.9638L89.9535 28.0444L89.9616 28.1492L89.9696 28.2379V28.3588L89.9777 28.4797L89.9858 28.5764V28.6732L89.9938 28.8102L90.0019 28.915V28.9875L90.01 29.1488V29.6083V29.9468V30.2128V30.9222L90.0019 31.0351V31.164L89.9938 31.3898V31.3978C89.9858 31.4865 89.9858 31.5752 89.9777 31.6638L89.9616 31.8896L89.9535 31.9621L89.9454 32.0266L89.9374 32.1314L89.9293 32.1959V32.2443L89.9212 32.2926L89.9132 32.3652L89.9051 32.4619L89.897 32.5264L89.889 32.607L89.8648 32.8246C89.8567 32.9133 89.8486 33.002 89.8406 33.0907L89.8164 33.3244L89.8003 33.4373L89.7841 33.5663L89.7761 33.6227L89.768 33.663L89.7599 33.7114L89.7438 33.8887L89.7357 33.9371L89.7277 33.9774L89.7196 34.0338L89.7035 34.1628L89.6954 34.2353C89.6712 34.4127 89.639 34.59 89.6148 34.7593L89.5825 34.9689L89.5664 35.0495L89.5583 35.0979L89.5422 35.2027L89.5099 35.3639L89.4938 35.4364L89.4696 35.5574L89.4454 35.6702L89.4051 35.8798C89.3889 35.9685 89.3728 36.0571 89.3486 36.1458L89.3002 36.3554L89.2518 36.5811L89.2276 36.6859L89.2196 36.7182L89.1954 36.8068L89.1712 36.9116L89.1389 37.0325L89.0905 37.2179V37.226C89.0502 37.4033 89.0018 37.5726 88.9534 37.7419L88.905 37.9354L88.8808 38.016L88.8728 38.0563L88.8405 38.1611L88.8163 38.2498L88.776 38.3868L88.7357 38.5158L88.7195 38.5722C87.0339 44.1908 83.7432 49.1161 79.3801 52.824L79.2834 52.9046L79.0979 53.0578L79.0495 53.1062L78.9285 53.2029L78.7511 53.348L78.7027 53.3883L78.5575 53.5012L78.3881 53.6301L78.3478 53.6624L77.9929 53.9284L77.8155 54.0654L77.6623 54.1783L77.6381 54.1944L77.4364 54.3395L77.2913 54.4443L77.2751 54.4524L77.0413 54.6136L76.9203 54.7023C76.7993 54.7909 76.6703 54.8716 76.5493 54.9522H43.3203L42.9573 54.7103L43.0301 54.8715Z" fill="black"/>
</svg>
