<svg width="213" height="200" viewBox="0 0 213 200" fill="none" xmlns="http://www.w3.org/2000/svg">
<path fill-rule="evenodd" clip-rule="evenodd" d="M112.167 160.296C109.05 150.231 114.913 140.825 125.834 138.663C131.216 97.0763 120.796 36.4177 68.7536 26.4081V26.3988C65.7937 25.8329 63.6505 15.7031 45.9377 13.8572L52.3491 25.6289C53.1656 26.9369 52.8223 28.6715 51.5511 29.562L0 65.8318L10.2991 85.0526L25.7107 82.2604L24.4303 77.1862C24.653 75.5907 26.1375 74.4776 27.7334 74.7001L49.3709 77.8355C49.64 73.559 49.0926 69.4868 51.6998 68.5312C53.2122 67.9746 54.901 68.7538 55.4483 70.2658C68.8279 106.638 33.6438 110.691 35.7407 160.293L112.167 160.296ZM141.913 185.176H11.1148C8.85088 185.176 7.01364 187.013 7.01364 189.276V199.991L146.023 200V189.286C146.023 188.163 145.559 187.134 144.817 186.391L144.826 186.382C144.075 185.64 143.045 185.176 141.913 185.176ZM130.324 179.323V169.694C130.324 166.939 128.023 166.15 125.685 166.15H26.4141C24.41 166.15 22.7027 167.699 22.7027 169.694V179.323H130.324ZM80.9061 46.7256C77.5752 44.7961 80.5071 39.7405 83.8381 41.67C103.917 53.3118 113.66 79.1271 113.539 101.856C113.52 105.706 107.684 105.669 107.703 101.828C107.814 81.2067 99.1192 57.3004 80.9061 46.7256ZM136.179 175.77H206.148C214.286 175.77 212.913 177.171 212.913 190.028H151.879C151.879 186.874 151.174 184.462 148.956 182.245L148.947 182.255C145.718 178.674 140.745 179.323 136.18 179.323L136.179 175.77ZM128.756 160.538C128.97 159.741 129.592 158.748 130.399 158.748H201.444C204.061 158.748 203.225 166.967 203.225 169.917H136.178C136.178 165.279 133.089 161.521 128.756 160.538ZM147.638 68.0793C147.555 97.9205 145.374 124.646 139.547 152.894H192.286C186.459 124.646 184.279 97.9229 184.195 68.0793H147.638ZM189.41 45.2036H142.424C129.434 26.3817 142.638 0 165.918 0C189.188 0 202.409 26.3812 189.41 45.2036ZM179.083 129.118C179.473 132.94 173.665 133.534 173.275 129.712C171.66 113.961 170.797 98.7474 170.473 82.4945C170.398 78.6541 176.235 78.5427 176.309 82.3832C176.615 98.116 177.496 113.775 179.083 129.118ZM138.304 62.2259C130.955 62.2259 130.955 51.0572 138.304 51.0572H193.539C200.888 51.0572 200.888 62.2259 193.539 62.2259H138.304Z" fill="black"/>
</svg>
