<svg width="230" height="216" viewBox="0 0 230 216" fill="none" xmlns="http://www.w3.org/2000/svg">
<path d="M71.9442 91.2125V94.5487C71.9442 96.0201 73.1236 97.1995 74.5951 97.1995H131.533C133.004 97.1995 134.184 96.0201 134.184 94.5487V91.2125C134.184 89.7411 133.004 88.5616 131.533 88.5616H74.5951C73.1236 88.5616 71.9442 89.7411 71.9442 91.2125Z" fill="black"/>
<path d="M62.7428 210.063C62.7428 213.051 65.1578 215.499 68.1792 215.499H137.945C140.933 215.499 143.381 213.084 143.381 210.063V207.154C143.381 204.997 142.089 203.043 140.135 202.178H66.0562C64.0681 203.043 62.8101 204.997 62.8101 207.154V210.063H62.7428Z" fill="black"/>
<path d="M79.8291 158.764H126.243L127.332 156.405C113.763 140.129 117.099 106.141 117.931 99.2429H88.1434C88.9746 106.117 92.3106 140.107 78.7419 156.405L79.8291 158.764Z" fill="black"/>
<path d="M75.2571 164.742V168.112C75.2571 170.269 77.0094 172.021 79.166 172.021H126.905C129.062 172.021 130.814 170.269 130.814 168.112V164.742C130.814 162.585 129.062 160.833 126.905 160.833H79.166C77.0094 160.833 75.2571 162.585 75.2571 164.742Z" fill="black"/>
<path d="M63.3492 189.733V194.934C63.3492 196.225 63.8435 197.495 64.7308 198.438C65.7081 199.505 67.0896 200.101 68.5498 200.101H137.596C139.034 200.101 140.416 199.494 141.415 198.438C142.303 197.495 142.763 196.226 142.763 194.934V189.699C142.763 188.778 142.539 187.857 142.044 187.049C138.394 181.005 134.654 177.018 132.665 175.12C131.947 174.435 130.969 174.053 129.992 174.053H76.1885C75.1776 174.053 74.234 174.423 73.4814 175.12C71.4933 177.018 67.7641 181.017 64.1024 187.049C63.6082 187.857 63.3835 188.778 63.3835 189.699L63.3492 189.733Z" fill="black"/>
<path d="M3.74017 215.377H51.8158C53.8825 215.377 55.5562 213.715 55.5562 211.636V209.626C55.5562 208.132 54.6689 206.784 53.3097 206.2L2.24649 206.211C0.898596 206.818 0 208.143 0 209.637V211.648C0 213.714 1.66239 215.388 3.74046 215.388L3.74017 215.377Z" fill="black"/>
<path d="M8.62573 182.714C8.62573 184.208 9.83885 185.421 11.3328 185.421H44.2314C45.7254 185.421 46.9385 184.208 46.9385 182.714V180.389C46.9385 178.895 45.7254 177.682 44.2314 177.682H11.3328C9.83885 177.682 8.62573 178.895 8.62573 180.389V182.714Z" fill="black"/>
<path d="M16.8466 133.661H11.3202C9.82628 133.661 8.61316 134.874 8.61316 136.368V138.693C8.61316 140.187 9.82628 141.4 11.3202 141.4H18.0147C18.5089 150.453 18.1607 166.134 11.028 174.693L11.7806 176.332H43.7591L44.5117 174.693C37.379 166.122 37.0308 150.453 37.5251 141.4H44.2196C45.7135 141.4 46.9266 140.187 46.9266 138.693V136.368C46.9266 134.874 45.7135 133.661 44.2196 133.661H38.6931C37.6822 133.661 37.2217 132.391 38.0304 131.762C42.894 128 45.6235 121.586 44.0736 114.678C42.692 108.5 37.6373 103.524 31.4484 102.199C20.6091 99.8961 11.0277 108.096 11.0277 118.564C11.0277 123.945 13.555 128.718 17.4976 131.762C18.3063 132.391 17.8458 133.661 16.8348 133.661H16.8466Z" fill="black"/>
<path d="M0.91926 195.798C0.571065 196.348 0.425049 196.977 0.425049 197.606V201.2C0.425049 202.088 0.773242 202.953 1.36856 203.615C2.05373 204.368 3.00849 204.761 3.98573 204.761H51.5782C52.5892 204.761 53.5327 204.334 54.1954 203.615C54.802 202.953 55.1389 202.088 55.1389 201.2V197.606C55.1389 196.977 54.9704 196.337 54.6447 195.798C52.1174 191.63 49.5565 188.867 48.1748 187.575C47.6806 187.081 47.0291 186.823 46.3327 186.823H9.2444C8.55922 186.823 7.89651 187.081 7.40229 187.575C6.0207 188.901 3.45968 191.664 0.932401 195.798H0.91926Z" fill="black"/>
<path d="M142.63 92.2793C142.518 92.5377 134.61 109.645 135.217 145.735C135.217 146.229 135.014 156.35 130.701 161.124C133.285 162.415 140.159 165.145 151.549 164.774C149.942 155.373 141.597 97.4584 174.182 74.7448C175.912 73.5316 177.26 72.3635 178.293 71.1167C180.225 68.8478 182.438 65.3321 182.752 61.1085C176.833 62.288 151.234 68.6119 142.642 92.279L142.63 92.2793Z" fill="black"/>
<path d="M153.031 213.882C153.031 214.769 153.749 215.488 154.614 215.488H222.761C223.648 215.488 224.367 214.769 224.367 213.882V206.693C224.367 206.266 224.199 205.862 223.907 205.57L223.592 205.255C223.075 204.761 222.761 204.132 222.615 203.469H154.782C154.636 204.132 154.321 204.761 153.804 205.255L153.49 205.57C153.175 205.884 153.029 206.289 153.029 206.693L153.031 213.882Z" fill="black"/>
<path d="M213.135 175.298L212.101 173.175H165.285L164.252 175.298C164.139 175.523 164.106 175.759 164.106 176.017V181.88C164.106 182.858 163.701 183.812 163.016 184.498L153.817 193.731C153.525 194.023 153.323 194.449 153.323 194.854V198.875C153.323 199.302 153.491 199.706 153.817 199.998C154.221 200.403 154.48 200.863 154.648 201.346H222.772C222.974 200.852 223.232 200.403 223.637 199.998C223.929 199.706 224.097 199.279 224.097 198.875V194.854C224.097 194.427 223.929 194.023 223.637 193.731L214.404 184.498C213.718 183.812 213.314 182.858 213.314 181.88V176.017C213.314 175.792 213.258 175.523 213.146 175.298H213.135Z" fill="black"/>
<path d="M188.75 54.0898L184.898 60.1329C184.898 65.4572 182.191 69.7705 179.899 72.4663C178.72 73.8478 177.248 75.1396 175.361 76.4649C142.9 99.0983 152.93 160.539 153.739 165.292C154.682 166.269 159.198 170.695 164.691 171.077H214.664C214.664 171.077 225.077 170.324 226.716 165.157C226.087 163.113 221.37 149.713 204.027 134.392C184.269 116.915 190.481 108.973 190.773 108.625L190.919 108.457L191.121 108.344C191.289 108.255 195.4 106.446 203.948 110.243C210.789 113.287 218.213 116.364 220.314 117.229C220.516 117.319 220.741 117.319 220.943 117.229C221.37 117.061 221.46 116.679 221.493 116.51C221.493 116.364 221.493 115.96 221.123 115.702L217.011 112.938C216.001 112.276 215.63 110.95 216.147 109.861C216.719 108.648 218.157 108.131 219.393 108.715L225.514 111.557C226.009 111.782 226.581 111.815 227.098 111.613C227.615 111.411 228.042 111.04 228.278 110.546L229.311 108.333C230.749 105.256 229.884 101.605 227.21 99.4821C220.853 94.3939 212.799 87.5534 210.62 83.8129C210.07 82.8918 209.553 81.8585 209.014 80.7689C206.172 75.0179 202.915 68.5144 191.851 70.2779H191.559L191.267 70.2217C190.975 70.1094 188.481 69.0086 187.874 66.9419C187.672 66.2792 187.65 65.2458 188.391 64.0664L188.683 54.1146L188.75 54.0898Z" fill="black"/>
<path d="M85.1744 77.6114H120.917C121.804 75.1066 124.309 72.9499 125.983 71.748C126.668 71.2537 127.05 70.4562 127.05 69.625C127.05 68.1536 125.87 66.9742 124.399 66.9742H81.6919C80.2204 66.9742 79.041 68.1536 79.041 69.625C79.041 70.4562 79.4454 71.265 80.1081 71.748C81.7705 72.961 84.2758 75.1178 85.1744 77.6114Z" fill="black"/>
<path d="M75.4467 34.3091C75.4467 34.3091 84.4214 60.099 87.1172 64.962H118.949C121.656 60.132 128.643 40.0935 130.62 34.3091L108.705 29.6252V22.4925C108.705 21.9196 109.166 21.4591 109.738 21.4591H115.287C117.073 21.4591 118.511 20.0213 118.511 18.2354V13.3493C118.511 11.5634 117.073 10.1256 115.287 10.1256H109.738C109.166 10.1256 108.705 9.66504 108.705 9.09218V3.54331C108.705 1.75736 107.267 0.31958 105.481 0.31958H100.595C98.8093 0.31958 97.3715 1.75733 97.3715 3.54331V9.09218C97.3715 9.66504 96.911 10.1256 96.3381 10.1256H90.7893C89.0033 10.1256 87.5655 11.5633 87.5655 13.3493V18.2354C87.5655 20.0213 89.0033 21.4591 90.7893 21.4591H96.3381C96.911 21.4591 97.3715 21.9196 97.3715 22.4925V29.6252L75.457 34.3091H75.4467Z" fill="black"/>
<path d="M76.5134 82.3272V83.8772C76.5134 85.3487 77.6928 86.5281 79.1643 86.5281H126.924C128.395 86.5281 129.574 85.3487 129.574 83.8772V82.3272C129.574 80.8557 128.395 79.6763 126.924 79.6763H79.1643C77.6928 79.6763 76.5134 80.8557 76.5134 82.3272Z" fill="black"/>
</svg>
