<svg width="230" height="216" viewBox="0 0 230 216" fill="none" xmlns="http://www.w3.org/2000/svg">
<path d="M71.9442 90.8929V94.2291C71.9442 95.7005 73.1236 96.88 74.5951 96.88H131.533C133.004 96.88 134.184 95.7005 134.184 94.2291V90.8929C134.184 89.4215 133.004 88.2421 131.533 88.2421H74.5951C73.1236 88.2421 71.9442 89.4215 71.9442 90.8929Z" fill="white"/>
<path d="M62.7427 209.743C62.7427 212.731 65.1577 215.18 68.1792 215.18H137.945C140.933 215.18 143.381 212.765 143.381 209.743V206.834C143.381 204.678 142.089 202.723 140.135 201.858H66.0562C64.068 202.723 62.81 204.678 62.81 206.834V209.743H62.7427Z" fill="white"/>
<path d="M79.8292 158.444H126.243L127.332 156.086C113.763 139.81 117.1 105.822 117.931 98.9233H88.1435C88.9747 105.797 92.3107 139.787 78.742 156.086L79.8292 158.444Z" fill="white"/>
<path d="M75.2571 164.423V167.792C75.2571 169.949 77.0094 171.701 79.166 171.701H126.905C129.062 171.701 130.814 169.949 130.814 167.792V164.423C130.814 162.266 129.062 160.514 126.905 160.514H79.166C77.0094 160.514 75.2571 162.266 75.2571 164.423Z" fill="white"/>
<path d="M63.3493 189.414V194.614C63.3493 195.906 63.8436 197.175 64.7309 198.119C65.7081 199.186 67.0897 199.781 68.5499 199.781H137.597C139.034 199.781 140.416 199.175 141.415 198.119C142.303 197.175 142.763 195.906 142.763 194.614V189.38C142.763 188.459 142.539 187.538 142.045 186.729C138.394 180.686 134.654 176.698 132.665 174.8C131.947 174.115 130.969 173.733 129.992 173.733H76.1885C75.1776 173.733 74.2341 174.104 73.4815 174.8C71.4933 176.699 67.7641 180.697 64.1025 186.729C63.6082 187.538 63.3836 188.459 63.3836 189.38L63.3493 189.414Z" fill="white"/>
<path d="M3.74017 215.057H51.8158C53.8825 215.057 55.5562 213.395 55.5562 211.317V209.306C55.5562 207.812 54.6689 206.464 53.3097 205.88L2.24649 205.892C0.898596 206.498 0 207.824 0 209.318V211.328C0 213.395 1.66239 215.069 3.74046 215.069L3.74017 215.057Z" fill="white"/>
<path d="M8.62573 182.394C8.62573 183.888 9.83885 185.101 11.3328 185.101H44.2314C45.7254 185.101 46.9385 183.888 46.9385 182.394V180.069C46.9385 178.575 45.7254 177.362 44.2314 177.362H11.3328C9.83885 177.362 8.62573 178.575 8.62573 180.069V182.394Z" fill="white"/>
<path d="M16.8466 133.341H11.3202C9.82628 133.341 8.61316 134.554 8.61316 136.048V138.373C8.61316 139.867 9.82628 141.08 11.3202 141.08H18.0147C18.5089 150.134 18.1607 165.814 11.028 174.373L11.7806 176.013H43.7591L44.5117 174.373C37.379 165.802 37.0308 150.133 37.5251 141.08H44.2196C45.7135 141.08 46.9266 139.867 46.9266 138.373V136.048C46.9266 134.554 45.7135 133.341 44.2196 133.341H38.6931C37.6822 133.341 37.2217 132.072 38.0304 131.443C42.894 127.68 45.6235 121.266 44.0736 114.358C42.692 108.181 37.6373 103.205 31.4484 101.879C20.6091 99.5766 11.0277 107.776 11.0277 118.245C11.0277 123.625 13.555 128.399 17.4976 131.443C18.3063 132.072 17.8458 133.341 16.8348 133.341H16.8466Z" fill="white"/>
<path d="M0.91926 195.478C0.571065 196.028 0.425049 196.657 0.425049 197.286V200.881C0.425049 201.768 0.773242 202.633 1.36856 203.296C2.05373 204.048 3.00849 204.442 3.98573 204.442H51.5782C52.5892 204.442 53.5327 204.015 54.1954 203.296C54.802 202.633 55.1389 201.768 55.1389 200.881V197.286C55.1389 196.657 54.9704 196.017 54.6447 195.478C52.1174 191.311 49.5565 188.547 48.1748 187.256C47.6806 186.762 47.0291 186.503 46.3327 186.503H9.2444C8.55922 186.503 7.89651 186.762 7.40229 187.256C6.0207 188.581 3.45968 191.344 0.932401 195.478H0.91926Z" fill="white"/>
<path d="M142.63 91.9597C142.518 92.2181 134.61 109.325 135.217 145.415C135.217 145.91 135.014 156.03 130.701 160.804C133.285 162.096 140.159 164.825 151.549 164.454C149.942 155.053 141.597 97.1388 174.182 74.4252C175.912 73.2121 177.26 72.0439 178.293 70.7972C180.225 68.5282 182.438 65.0125 182.752 60.789C176.833 61.9684 151.234 68.2923 142.642 91.9595L142.63 91.9597Z" fill="white"/>
<path d="M153.031 213.562C153.031 214.449 153.749 215.168 154.614 215.168H222.761C223.648 215.168 224.367 214.449 224.367 213.562V206.373C224.367 205.946 224.199 205.542 223.907 205.25L223.592 204.936C223.075 204.441 222.761 203.812 222.615 203.15H154.782C154.636 203.812 154.321 204.441 153.804 204.936L153.49 205.25C153.175 205.565 153.029 205.969 153.029 206.373L153.031 213.562Z" fill="white"/>
<path d="M213.135 174.979L212.101 172.856H165.285L164.252 174.979C164.139 175.203 164.106 175.439 164.106 175.697V181.561C164.106 182.538 163.701 183.493 163.016 184.178L153.817 193.411C153.525 193.703 153.323 194.13 153.323 194.534V198.555C153.323 198.982 153.491 199.387 153.817 199.679C154.221 200.083 154.48 200.544 154.648 201.027H222.772C222.974 200.532 223.232 200.083 223.637 199.679C223.929 199.387 224.097 198.96 224.097 198.555V194.534C224.097 194.107 223.929 193.703 223.637 193.411L214.404 184.178C213.718 183.493 213.314 182.538 213.314 181.561V175.697C213.314 175.473 213.258 175.203 213.146 174.979H213.135Z" fill="white"/>
<path d="M188.75 53.7702L184.898 59.8133C184.898 65.1376 182.191 69.4509 179.899 72.1467C178.72 73.5283 177.248 74.82 175.361 76.1454C142.9 98.7788 152.93 160.219 153.739 164.973C154.682 165.95 159.198 170.375 164.691 170.757H214.664C214.664 170.757 225.076 170.005 226.716 164.838C226.087 162.793 221.37 149.393 204.027 134.073C184.269 116.595 190.481 108.654 190.773 108.306L190.919 108.137L191.121 108.025C191.289 107.935 195.4 106.127 203.948 109.923C210.789 112.967 218.213 116.045 220.314 116.91C220.516 117 220.741 117 220.943 116.91C221.37 116.741 221.459 116.359 221.493 116.191C221.493 116.045 221.493 115.64 221.122 115.382L217.011 112.619C216 111.956 215.63 110.631 216.146 109.541C216.719 108.328 218.157 107.811 219.393 108.396L225.514 111.237C226.009 111.462 226.581 111.496 227.098 111.294C227.615 111.091 228.042 110.721 228.277 110.226L229.311 108.014C230.749 104.936 229.884 101.286 227.21 99.1625C220.853 94.0743 212.799 87.2338 210.62 83.4933C210.07 82.5723 209.553 81.5389 209.014 80.4493C206.172 74.6983 202.915 68.1948 191.851 69.9583H191.559L191.267 69.9022C190.975 69.7898 188.481 68.689 187.874 66.6223C187.672 65.9596 187.65 64.9263 188.391 63.7468L188.683 53.795L188.75 53.7702Z" fill="white"/>
<path d="M85.1743 77.2918H120.917C121.804 74.787 124.309 72.6303 125.983 71.4284C126.668 70.9341 127.05 70.1366 127.05 69.3054C127.05 67.834 125.87 66.6546 124.399 66.6546H81.6918C80.2204 66.6546 79.041 67.834 79.041 69.3054C79.041 70.1366 79.4453 70.9454 80.108 71.4284C81.7704 72.6415 84.2757 74.7982 85.1743 77.2918Z" fill="white"/>
<path d="M75.4467 33.9895C75.4467 33.9895 84.4214 59.7794 87.1172 64.6424H118.949C121.656 59.8124 128.643 39.7739 130.62 33.9895L108.705 29.3056V22.1729C108.705 21.6001 109.166 21.1395 109.738 21.1395H115.287C117.073 21.1395 118.511 19.7018 118.511 17.9158V13.0297C118.511 11.2438 117.073 9.806 115.287 9.806H109.738C109.166 9.806 108.705 9.34546 108.705 8.7726V3.22373C108.705 1.43778 107.267 0 105.481 0H100.595C98.8093 0 97.3715 1.43775 97.3715 3.22373V8.7726C97.3715 9.34546 96.911 9.806 96.3381 9.806H90.7893C89.0033 9.806 87.5655 11.2438 87.5655 13.0297V17.9158C87.5655 19.7017 89.0033 21.1395 90.7893 21.1395H96.3381C96.911 21.1395 97.3715 21.6001 97.3715 22.1729V29.3056L75.457 33.9895H75.4467Z" fill="white"/>
<path d="M76.5134 82.0076V83.5577C76.5134 85.0291 77.6928 86.2085 79.1643 86.2085H126.924C128.395 86.2085 129.574 85.0291 129.574 83.5577V82.0076C129.574 80.5361 128.395 79.3567 126.924 79.3567H79.1643C77.6928 79.3567 76.5134 80.5361 76.5134 82.0076Z" fill="white"/>
</svg>
