<svg width="233" height="172" viewBox="0 0 233 172" fill="none" xmlns="http://www.w3.org/2000/svg">
<path d="M210.274 50.8616H178.023C176.365 50.8717 174.868 51.8731 174.231 53.4108C173.594 54.9484 173.937 56.7185 175.111 57.8922C175.879 58.6812 176.931 59.1263 178.023 59.1263H210.275C212.52 59.0656 214.3 57.2346 214.3 54.9989C214.3 52.7532 212.52 50.9224 210.274 50.8616ZM217.961 122.766C215.18 115.048 212.874 107.157 211.073 99.1556C208.838 90.6076 207.524 74.3314 206.735 64.5888H206.745C206.704 64.1134 206.3 63.7492 205.825 63.7492H182.463C181.988 63.7492 181.593 64.1134 181.563 64.5888C180.784 74.3303 179.459 90.6175 177.224 99.1556C175.414 107.157 173.118 115.048 170.337 122.766C170.215 123.049 170.246 123.363 170.408 123.626C170.569 123.879 170.853 124.03 171.156 124.03H217.121C217.435 124.03 217.718 123.879 217.89 123.626C218.052 123.373 218.082 123.049 217.961 122.766ZM154.986 129.564C151.79 122.341 149.069 110.415 146.895 102.108C144.326 92.3163 142.829 73.5521 141.929 62.4037C141.899 61.9383 141.504 61.5641 141.029 61.5641H113.601C113.126 61.5641 112.731 61.9383 112.701 62.4037C111.801 73.5514 110.304 92.3168 107.735 102.108C105.571 110.393 102.84 122.33 99.6446 129.564C99.5232 129.847 99.5536 130.171 99.7154 130.424C99.8873 130.687 100.17 130.838 100.484 130.838H154.146C154.45 130.838 154.743 130.687 154.905 130.424C155.077 130.171 155.107 129.847 154.986 129.564ZM164.593 132.801C167.071 135.188 165.706 137.353 166.494 138.152C166.656 138.334 166.899 138.425 167.142 138.425H223.07H223.059C223.565 138.425 223.98 138.021 223.98 137.515V129.341C223.98 129.078 223.242 128.674 222.534 128.674H165.767C165.049 128.674 164.321 129.078 164.321 129.341L164.331 132.143C164.321 132.386 164.412 132.629 164.584 132.801L164.593 132.801ZM166.221 143.969V146.295C166.221 148.339 169.963 145.972 173.938 148.642V148.652C175.485 149.593 176.466 151.242 176.527 153.053V159.274C176.527 159.517 176.618 159.739 176.79 159.911C176.962 160.083 177.184 160.174 177.427 160.174H230.724C231.554 160.225 232.373 159.942 233 159.395V143.847C232.373 143.291 231.554 143.018 230.724 143.068H167.141C166.635 143.068 166.221 143.483 166.221 143.989L166.221 143.969ZM78.1147 159.284V153.063C78.1147 149.411 82.0184 147.216 85.6694 147.216C87.6415 147.216 88.39 147.5 88.39 145.942H88.4001C88.4001 145.709 88.3091 145.476 88.1371 145.304C87.9652 145.132 87.7326 145.031 87.4899 145.031H1.86085C1.2136 145.062 0.57647 145.223 0 145.527V159.699V159.689C0.57647 159.983 1.2136 160.155 1.86085 160.185H77.2063H77.1962C77.4389 160.185 77.6715 160.094 77.8333 159.922C78.0053 159.75 78.1064 159.517 78.0963 159.285L78.1147 159.284ZM88.4001 139.478C88.0259 137.384 88.4102 135.229 89.4923 133.398C89.7047 133.125 89.7451 132.75 89.5833 132.447C89.4316 132.133 89.1181 131.941 88.7641 131.941H9.32286C8.91832 131.921 8.52391 132.063 8.22051 132.336V139.477C8.23062 139.973 8.62504 140.378 9.1206 140.378H87.49C87.7328 140.378 87.9654 140.277 88.1373 140.105C88.2991 139.933 88.4002 139.7 88.4002 139.467L88.4001 139.478ZM93.0422 136.554V146.316C93.0422 146.559 93.1433 146.781 93.3051 146.953C93.477 147.125 93.7096 147.216 93.9524 147.216H160.679C160.912 147.216 161.144 147.125 161.316 146.953C161.488 146.781 161.589 146.559 161.589 146.316V136.554C161.589 135.866 160.295 135.482 159.627 135.482H95.0029C94.2444 135.482 93.0422 135.897 93.0422 136.554ZM139.523 42.2543C159.031 42.2543 160.478 15.1043 160.629 0.910427L160.619 0.920542C160.629 0.677762 160.538 0.445107 160.366 0.273128C160.194 0.101157 159.962 0 159.719 0H151.032C150.526 0 150.121 0.404634 150.121 0.900321V11.613C150.111 15.0725 148.018 18.1884 144.822 19.5135C141.626 20.8285 137.945 20.1002 135.497 17.6623C133.879 16.064 132.969 13.8892 132.979 11.6131V0.900474C132.969 0.404787 132.564 0.000153121 132.059 0.000153121H122.572C122.067 0.000153121 121.662 0.404787 121.652 0.900474V11.6131C121.652 16.3473 117.809 20.1914 113.076 20.1914C108.343 20.1914 104.51 16.3473 104.51 11.6131V0.900474C104.51 0.404787 104.105 0.000153121 103.6 0.000153121H94.9122C94.6695 0.000153121 94.4369 0.101312 94.265 0.273286C94.0931 0.445255 94.0021 0.67792 94.0021 0.920701C94.1436 15.1133 95.6 42.2646 115.108 42.2646L139.523 42.2543ZM145.672 46.8875H108.959C106.229 46.9583 104.055 49.1838 104.055 51.915C104.055 54.6363 106.229 56.8719 108.959 56.9325H145.672C147.694 56.9224 149.505 55.6984 150.283 53.8371C151.052 51.9656 150.627 49.821 149.211 48.3846C148.271 47.4337 147.006 46.8975 145.671 46.8975L145.672 46.8875ZM168.953 151.859H85.6692C84.3544 151.859 82.7565 152.527 82.7565 153.063V170.796C82.7565 171.342 84.3544 172 85.6692 172L168.953 171.99C170.267 171.99 171.865 171.322 171.865 170.786L171.875 153.063C171.875 152.547 170.277 151.859 168.963 151.859L168.953 151.859ZM13.692 127.288H84.2012C84.4439 127.298 84.6866 127.197 84.8586 127.025C85.0305 126.843 85.1215 126.61 85.1215 126.367C85.0709 121.006 84.7372 115.655 84.1405 110.334C82.8157 102.595 78.2849 95.7769 71.6506 91.5788C65.6938 88.3822 55.8535 83.2637 53.8511 76.486V76.4759C53.7803 76.2129 53.5983 76.0005 53.3455 75.8993C50.1597 74.6247 47.7123 71.9845 46.701 68.697C46.2156 67.5235 46.7718 66.168 47.9551 65.6823C49.1282 65.1867 50.4834 65.7532 50.969 66.9266C52.4051 70.3962 53.4771 71.2461 57.7853 72.6016C65.8154 74.8473 74.0272 76.3646 82.3305 77.1537C85.7891 77.356 88.7424 77.2751 90.5627 74.7866V74.7765C92.5449 71.6202 93.3035 67.837 92.6764 64.1547C91.4123 56.77 84.7981 52.3495 78.9122 48.4549C68.2527 41.394 66.4223 38.7639 58.5439 29.518C58.1799 29.0932 57.9776 28.5469 57.9776 27.9906C57.9776 24.6623 58.6855 20.697 58.3518 17.3688C58.2506 16.3775 57.1786 16.4786 56.4909 16.7517C48.1574 20.08 46.954 26.6955 41.1085 31.794C38.4183 34.151 34.8382 37.9546 31.9864 40.0789C24.4824 45.7033 23.6633 54.9997 23.6226 63.0419L23.6327 63.052C23.5012 64.2356 22.5 65.1257 21.3066 65.1156C20.1234 65.1156 19.1323 64.2255 19.0008 63.0419C19.0514 53.543 20.2751 43.0427 29.2153 36.3658C31.8043 34.4337 35.4553 30.5997 38.0645 28.3136C40.7951 25.3901 43.3233 22.2846 45.6293 19.0172C45.8822 18.7137 45.9125 18.2787 45.7102 17.9449C45.4979 17.6111 45.0933 17.4492 44.709 17.5403C44.2843 17.6414 43.8696 17.7628 43.4954 17.8741C25.3218 23.6605 12.1735 38.9656 12.2046 58.1459C12.2349 74.2606 12.4271 89.7889 12.2653 105.985C12.2046 113.025 12.1136 124.254 12.5586 125.781C12.7608 126.489 12.8519 127.309 13.6811 127.309L13.692 127.288ZM208.647 45.8765C212.915 40.3432 213.664 32.8676 210.589 26.5957C207.505 20.3238 201.133 16.3484 194.145 16.3484C187.156 16.3484 180.785 20.3241 177.7 26.5957C174.616 32.8676 175.374 40.3432 179.642 45.8765C179.814 46.099 180.087 46.2305 180.37 46.2204H207.93C208.213 46.2305 208.475 46.099 208.647 45.8765Z" fill="white"/>
</svg>
